<svg xmlns="http://www.w3.org/2000/svg" width="245" height="55" viewBox="0 0 245 55" fill="none"><g id="Group 316"><g id="Group"><path id="Vector" d="M41.4201 48.536C41.4201 48.536 27.8533 19.5256 27.7129 19.1434C28.2437 17.7461 28.6367 17.1893 28.6827 17.0906C29.3666 15.7566 30.5534 14.9238 32.1561 14.9238C33.7588 14.9238 35.0757 15.792 35.78 17.0703L35.3207 16.3869C35.3258 16.4021 35.7749 17.0551 35.78 17.0652C35.8489 17.1893 48.3873 43.1369 48.3873 43.1369C48.418 43.2001 47.8871 42.0965 47.9178 42.1598C50.697 47.9512 52.8382 52.4189 52.8509 52.434C52.9198 52.6036 52.9607 52.7909 52.9607 52.9833C52.9607 53.7756 52.3405 54.4211 51.5621 54.4666C51.5315 54.4666 51.5009 54.4767 51.4626 54.4767C51.432 54.4767 51.3988 54.4666 51.3631 54.4666H44.1994L39.2407 54.4464C41.4661 53.3301 41.6549 50.9963 41.6651 50.0142C41.6702 49.4928 41.5707 48.9966 41.4099 48.536H41.4201Z" fill="#FF585D"></path><path id="Vector_2" d="M25.9365 18.2426C25.9365 18.2426 25.9519 18.2173 25.957 18.2021C25.9467 18.2123 25.9416 18.2274 25.9365 18.2426Z" fill="#FF585D"></path><path id="Vector_3" d="M26.7228 17.3386L14.1257 44.1722L11.201 44.1468C10.2057 44.0912 9.61109 43.8482 9.29719 43.6963C7.62302 42.8888 6.98755 40.393 7.59239 38.3554C14.5902 24.0084 24.4821 3.24732 24.5434 3.12329C24.6225 2.95876 24.7041 2.7917 24.7832 2.62717C24.8522 2.48289 24.9236 2.34367 24.9925 2.19686C25.0487 2.07789 25.1074 1.95892 25.1635 1.83996C25.2094 1.7463 25.2579 1.64758 25.3039 1.55646C25.3141 1.53115 25.3294 1.50583 25.3396 1.47799C25.36 1.43243 25.3804 1.3894 25.4085 1.34384C25.4187 1.31852 25.434 1.29321 25.4442 1.26537C25.5642 1.01224 25.753 0.819872 25.998 0.680654C26.2277 0.551562 26.488 0.488281 26.7484 0.488281C27.3277 0.488281 27.8177 0.814809 28.0678 1.29068L34.1571 13.8936C33.0724 13.314 32.7126 13.233 31.1481 13.233C29.5837 13.233 28.3281 14.1695 27.6441 15.4934C27.5931 15.5921 27.1235 16.5185 26.7841 17.2096C26.7739 17.2349 26.7586 17.2602 26.7484 17.288L26.7432 17.2931V17.2981C26.7381 17.3133 26.7279 17.3235 26.7228 17.3386ZM26.7075 17.369C26.6973 17.3842 26.6922 17.3994 26.6871 17.4095C26.6922 17.3994 26.7024 17.3842 26.7075 17.369Z" fill="#FF585D"></path><path id="Vector_4" d="M12.9161 45.6859H38.2328L39.6084 48.5968L39.6033 48.6069C39.7641 49.0676 39.8585 49.5587 39.8585 50.0751C39.8585 52.5202 37.9087 54.5224 35.4434 54.5224H1.59761C1.56698 54.5224 1.53636 54.5325 1.49807 54.5325C1.46745 54.5325 1.43427 54.5275 1.39854 54.5224C0.627813 54.4718 0.0127604 53.8441 0 53.0695C0.00510417 52.9404 0.0204167 52.8113 0.0459376 52.6822C0.0612501 52.6215 0.0816668 52.5633 0.104636 52.5025C0.10974 52.4873 2.71032 47.1566 6.1837 40.0337C5.58396 42.0713 6.53334 44.2988 8.52397 45.2556C8.99355 45.4784 9.47845 45.6125 9.96845 45.6682L10.2032 45.6935C10.3283 45.6986 10.4482 45.6986 10.5733 45.6986L12.9136 45.6834L12.9161 45.6859Z" fill="#FF585D"></path></g><g id="Group_2"><path id="Vector_5" d="M66.6603 39.2389C67.0559 38.9073 67.6505 38.9326 67.9951 39.3123C69.2201 40.6412 70.9784 41.7018 72.918 41.7018C75.4523 41.7018 76.9172 40.5754 76.9172 38.7175C76.9172 36.8595 75.7075 35.6623 73.1375 34.5333L71.0831 33.6601C67.158 31.949 65.2133 29.476 65.2133 26.1246C65.2133 21.9785 68.9929 19.2827 72.9563 19.2827C75.636 19.2827 77.8206 20.0902 79.6147 21.862C79.9899 22.2341 79.9848 22.8391 79.6198 23.2162L78.0452 24.8337C77.67 25.221 77.0397 25.2311 76.6543 24.8489C75.5543 23.763 74.4799 23.2821 72.9206 23.2821C71.1571 23.2821 69.4753 24.2996 69.4753 26.0841C69.4753 27.7598 70.6492 28.9596 73.2549 30.0505L75.2736 30.9618C78.8338 32.4932 81.2531 34.746 81.2531 38.3454C81.2531 42.7092 77.989 45.6935 72.964 45.6935C69.4242 45.6935 66.4842 44.276 64.7258 42.0485C64.4017 41.641 64.4808 41.0512 64.8764 40.7197L66.6654 39.2364L66.6603 39.2389Z" fill="#FF585D"></path><path id="Vector_6" d="M93.4118 20.2093L93.4424 44.7318C93.4424 45.2684 93.0034 45.7038 92.4624 45.7038H90.163C89.6219 45.7038 89.183 45.2684 89.183 44.7318L89.1523 20.2093C89.1523 19.6727 89.5913 19.2373 90.1323 19.2373H92.4318C92.9728 19.2424 93.4118 19.6777 93.4118 20.2093Z" fill="#FF585D"></path><path id="Vector_7" d="M114.137 19.2878C117.485 19.2878 120.591 20.3281 122.916 22.348C123.327 22.7049 123.36 23.3352 122.99 23.7351L121.555 25.2918C121.206 25.669 120.616 25.7272 120.226 25.3956C118.621 24.0617 116.377 23.2846 114.137 23.2846C109.002 23.2846 105.148 27.3244 105.148 32.4881C105.148 37.6518 109.002 41.6917 114.137 41.6917C115.821 41.6917 117.536 41.3246 118.922 40.6108C119.251 40.4463 119.452 40.1096 119.452 39.7426V34.3435H113.823C113.108 34.3435 112.633 33.6145 112.932 32.969L113.912 30.8378C114.073 30.491 114.417 30.2682 114.803 30.2682H122.732C123.273 30.2682 123.712 30.7036 123.712 31.2402V41.0285C123.712 41.9422 123.253 42.8029 122.487 43.3091C120.182 44.8253 117.227 45.6986 114.139 45.6986C106.766 45.6986 100.822 39.9476 100.822 32.4906C100.817 25.0337 106.761 19.2827 114.134 19.2827" fill="#FF585D"></path><path id="Vector_8" d="M134.574 45.6804H132.275C131.734 45.6804 131.295 45.245 131.295 44.7084L131.274 20.2593C131.274 19.4062 132.308 18.9658 132.928 19.5556L149.05 35.9883L149.055 20.1859C149.055 19.6492 149.494 19.2139 150.035 19.2139H152.334C152.875 19.2139 153.314 19.6492 153.314 20.1859L153.324 44.7286C153.324 45.5816 152.291 46.0221 151.671 45.4323L135.519 28.8528L135.554 44.7084C135.554 45.245 135.115 45.6804 134.574 45.6804Z" fill="#FF585D"></path><path id="Vector_9" d="M196.243 20.2092L196.258 41.6639H206.247C206.788 41.6639 207.227 42.0992 207.227 42.6359L207.186 44.7342C207.186 45.2709 206.747 45.7062 206.206 45.7062H192.938C192.397 45.7062 191.958 45.2709 191.958 44.7342L191.989 20.2117C191.989 19.6726 192.428 19.2397 192.969 19.2397H195.268C195.804 19.2397 196.243 19.6751 196.243 20.2067" fill="#FF585D"></path><path id="Vector_10" d="M175.847 35.8189L172.276 26.8457L168.683 35.8189H175.847ZM183.391 45.5362H181.007C180.632 45.5362 180.287 45.3186 180.126 44.9819L177.666 39.641H166.863L164.365 44.9819C164.204 45.3186 163.865 45.5362 163.484 45.5362H161.139C160.424 45.5362 159.955 44.7921 160.264 44.1567L171.396 19.8418C171.75 19.1178 172.787 19.1178 173.141 19.8418L184.258 44.1567C184.577 44.7971 184.108 45.5362 183.393 45.5362" fill="#FF585D"></path><path id="Vector_11" d="M232.495 35.1331L227.63 22.3707L222.746 35.1331H232.495ZM237.754 45.6453C237.379 45.6453 237.035 45.4327 236.874 45.0909L233.434 37.0872H221.817L218.882 45.0909C218.721 45.4327 218.376 45.6453 217.996 45.6453C217.276 45.6453 216.802 44.9011 217.111 44.2531L226.75 19.7306C227.104 18.9915 228.164 18.9915 228.518 19.7306L238.642 44.2531C238.951 44.8986 238.477 45.6453 237.757 45.6453" fill="#FF585D"></path><path id="Vector_12" d="M245.003 20.1507L244.893 44.6732C244.893 45.2098 244.454 45.6452 243.913 45.6452H243.803C243.262 45.6452 242.823 45.2098 242.823 44.6732L242.933 20.1507C242.933 19.6141 243.372 19.1787 243.913 19.1787H244.023C244.564 19.1787 245.003 19.6141 245.003 20.1507Z" fill="#FF585D"></path></g></g></svg>